<svg width="1980" height="991" viewBox="0 0 1980 991" fill="none" xmlns="http://www.w3.org/2000/svg">
<rect x="-115.065" y="1107.43" width="2400.8" height="584.214" transform="rotate(-17.1888 -115.065 1107.43)" fill="#9593E6" fill-opacity="0.8"/>
<path fill-rule="evenodd" clip-rule="evenodd" d="M-230.161 728.363L-184.818 705.694C-139.476 683.024 -48.7908 637.685 56.5355 639.678C161.862 641.67 281.829 690.994 384.716 685.098C487.602 679.202 573.406 618.085 654.33 541.192C735.254 464.298 811.297 371.628 914.183 365.732C1017.07 359.835 1146.8 440.714 1244.8 419.04C1342.81 397.367 1409.09 273.142 1507.1 251.469C1605.1 229.795 1734.83 310.674 1840.16 312.666C1945.48 314.659 2026.41 237.765 2066.87 199.318L2107.33 160.872L2180.54 397.529L2132.76 412.31C2084.97 427.091 1989.41 456.653 1893.84 486.215C1798.28 515.777 1702.71 545.339 1607.15 574.901C1511.58 604.463 1416.02 634.025 1320.45 663.587C1224.89 693.149 1129.32 722.71 1033.75 752.272C938.189 781.834 842.624 811.396 747.059 840.958C651.493 870.52 555.928 900.082 460.363 929.644C364.797 959.206 269.232 988.768 173.667 1018.33C78.1014 1047.89 -17.4639 1077.45 -65.2466 1092.23L-113.029 1107.02L-230.161 728.363Z" fill="#9593E6" fill-opacity="0.8"/>
</svg>
